<?xml version="1.0" standalone="no"?>
<!DOCTYPE svg PUBLIC "-//W3C//DTD SVG 20010904//EN"
 "http://www.w3.org/TR/2001/REC-SVG-20010904/DTD/svg10.dtd">
<svg version="1.0" xmlns="http://www.w3.org/2000/svg"
 width="225.000000pt" height="225.000000pt" viewBox="0 0 225.000000 225.000000"
 preserveAspectRatio="xMidYMid meet">

<g transform="translate(0.000000,225.000000) scale(0.100000,-0.100000)"
fill="#000000" stroke="none">
<path d="M538 2045 c-162 -44 -301 -186 -337 -346 -17 -71 -14 -1092 3 -1154
46 -174 193 -312 365 -345 76 -14 1044 -13 1113 1 185 39 334 189 367 373 15
81 15 1021 0 1102 -33 179 -167 322 -346 369 -78 20 -1091 21 -1165 0z m1174
-198 c32 -16 73 -47 92 -69 67 -78 67 -74 64 -669 -3 -598 0 -571 -78 -649
-78 -78 -50 -75 -659 -78 l-545 -3 -52 26 c-60 30 -108 79 -138 144 -21 45
-21 58 -21 581 0 598 -3 568 72 651 40 44 91 74 150 88 21 5 268 9 548 8 l510
-2 57 -28z"/>
<path d="M572 1388 c-30 -30 -3 -72 45 -66 25 3 28 7 28 38 0 32 -3 35 -30 38
-17 2 -36 -3 -43 -10z"/>
<path d="M915 1378 c-93 -33 -145 -117 -145 -237 0 -91 14 -139 53 -187 41
-49 98 -74 172 -74 150 0 232 101 223 272 -7 126 -52 195 -147 227 -41 13
-115 13 -156 -1z m164 -85 c47 -36 66 -81 66 -158 0 -124 -50 -185 -152 -185
-44 0 -58 5 -87 30 -45 40 -59 85 -54 173 4 82 29 129 82 153 40 18 111 12
145 -13z"/>
<path d="M1395 1367 c-51 -28 -78 -78 -71 -131 9 -74 39 -97 190 -143 135 -41
117 -143 -25 -143 -46 0 -55 4 -85 35 -23 25 -41 35 -63 35 -35 0 -37 -9 -17
-48 33 -64 103 -97 190 -90 108 9 166 62 166 152 0 71 -38 106 -150 135 -111
30 -130 42 -130 86 0 40 26 62 82 72 43 6 94 -18 110 -52 9 -19 19 -25 45 -25
40 0 43 18 13 68 -42 69 -174 95 -255 49z"/>
<path d="M570 1050 l0 -170 40 0 40 0 0 170 0 170 -40 0 -40 0 0 -170z"/>
</g>
</svg>
