<?xml version="1.0" standalone="no"?>
<!DOCTYPE svg PUBLIC "-//W3C//DTD SVG 20010904//EN"
 "http://www.w3.org/TR/2001/REC-SVG-20010904/DTD/svg10.dtd">
<svg version="1.0" xmlns="http://www.w3.org/2000/svg"
 width="1200.000000pt" height="1409.000000pt" viewBox="0 0 1200.000000 1409.000000"
 preserveAspectRatio="xMidYMid meet">

<g transform="translate(0.000000,1409.000000) scale(0.100000,-0.100000)"
fill="#000000" stroke="none">
<path d="M5650 13829 c-134 -12 -287 -36 -410 -65 -276 -64 -441 -146 -613
-304 -72 -66 -237 -269 -299 -370 -99 -159 -176 -360 -221 -576 -48 -226 -52
-290 -52 -779 0 -551 15 -794 91 -1505 35 -327 39 -638 10 -770 -44 -201 -120
-374 -252 -572 -96 -143 -155 -218 -466 -591 -366 -438 -430 -525 -541 -737
-83 -158 -120 -262 -192 -536 -169 -638 -231 -792 -573 -1409 -252 -455 -326
-641 -353 -886 -14 -127 -8 -199 21 -267 l23 -53 -20 -22 c-32 -35 -50 -73
-102 -217 -88 -241 -88 -241 -215 -289 -53 -20 -75 -21 -354 -21 l-297 0 -64
-30 c-91 -43 -198 -153 -244 -251 -42 -90 -57 -147 -67 -264 -10 -110 -2 -192
56 -595 52 -354 53 -431 13 -555 -29 -88 -123 -272 -201 -393 -66 -102 -95
-179 -104 -281 -19 -204 126 -319 546 -436 111 -30 148 -38 445 -90 467 -82
921 -208 1618 -449 257 -89 486 -156 652 -192 171 -37 402 -44 535 -16 193 40
342 123 505 282 97 95 103 98 215 143 495 196 1156 233 2265 126 468 -45 639
-67 650 -85 152 -260 331 -407 610 -502 131 -45 414 -77 540 -62 112 13 202
35 280 67 131 55 348 203 517 356 154 138 596 513 718 608 238 187 426 303
720 447 151 74 312 149 358 168 158 65 299 184 352 296 83 177 61 349 -61 483
-67 72 -142 121 -334 216 -88 43 -188 100 -221 127 -34 26 -95 72 -136 104
-78 59 -118 108 -163 197 -22 44 -32 90 -51 230 -49 361 -126 578 -227 640
-18 10 -49 23 -70 26 -33 7 -38 10 -33 29 31 104 79 327 96 441 31 201 38 550
16 798 -37 427 -139 851 -282 1169 -25 57 -70 163 -100 236 -170 420 -421 825
-777 1250 -212 252 -684 950 -828 1222 -141 266 -146 278 -178 375 -61 184
-88 311 -116 535 -9 69 -24 170 -35 225 -21 115 -46 351 -60 577 -5 87 -12
168 -15 180 -2 13 -14 122 -25 243 -40 431 -106 774 -215 1120 -52 165 -64
191 -137 310 -84 136 -189 281 -255 352 -118 129 -313 270 -510 371 -189 97
-389 160 -589 187 -60 8 -125 20 -144 26 -44 15 -517 21 -650 8z m1041 -2038
c68 -22 160 -77 217 -130 41 -38 96 -152 121 -253 41 -161 49 -393 20 -608
-13 -96 -69 -413 -73 -418 -2 -2 -39 15 -81 37 -42 23 -89 41 -103 41 -39 0
-98 18 -111 34 -10 12 -1 19 49 42 75 34 140 103 171 182 19 48 23 77 23 187
1 126 0 134 -39 249 -39 116 -41 119 -109 183 -92 87 -159 118 -251 117 -83 0
-156 -31 -229 -95 -97 -85 -126 -184 -126 -424 0 -148 3 -176 19 -208 22 -42
16 -45 -39 -17 -22 11 -46 20 -55 20 -10 0 -29 27 -51 74 -96 210 -132 534
-75 686 11 30 40 87 64 125 46 76 98 115 207 156 142 54 317 61 451 20z
m-1767 -94 c69 -32 132 -90 190 -175 86 -125 112 -253 104 -505 -4 -132 -7
-151 -26 -177 -12 -16 -22 -36 -22 -45 0 -8 -9 -15 -20 -15 -18 0 -20 7 -20
68 -1 89 -22 204 -61 330 -30 96 -37 107 -85 151 -66 61 -109 81 -172 81 -97
0 -154 -34 -232 -137 -73 -97 -83 -140 -78 -337 4 -135 8 -170 27 -217 30 -80
72 -133 136 -175 30 -21 54 -38 53 -39 -2 -2 -33 -21 -70 -43 l-67 -41 -44 52
c-162 191 -211 358 -189 633 14 161 28 222 85 358 62 147 143 227 261 257 56
15 171 3 230 -24z m-78 -393 c76 -36 130 -140 141 -270 l6 -74 -47 0 c-42 0
-46 2 -46 24 0 13 -9 53 -20 88 -11 34 -20 75 -20 91 0 27 0 27 -70 27 l-70 0
0 45 c0 33 4 45 15 45 8 0 19 9 25 20 13 24 41 25 86 4z m1840 -13 c83 -60
114 -118 114 -216 0 -32 7 -62 20 -82 l20 -33 -44 0 -43 0 -26 68 c-32 81 -76
137 -120 152 -28 9 -78 67 -77 88 1 10 81 50 101 51 9 1 34 -12 55 -28z m-876
-555 c148 -37 326 -100 520 -181 69 -29 145 -58 170 -65 206 -55 520 -203 609
-287 30 -29 59 -53 63 -53 36 0 36 -148 0 -221 -52 -108 -120 -167 -422 -370
-157 -105 -325 -217 -375 -248 -545 -345 -924 -417 -1270 -244 -115 58 -151
87 -353 287 -167 165 -200 203 -244 279 -27 49 -49 90 -47 91 2 2 47 -27 99
-65 227 -163 484 -260 730 -275 288 -18 639 90 1045 321 164 93 415 257 415
272 0 6 -9 18 -19 25 -13 9 -21 28 -23 56 l-3 42 -140 -101 c-377 -272 -741
-450 -1025 -504 -265 -49 -454 -21 -700 106 -114 59 -260 157 -320 214 -17 17
-49 59 -71 95 -36 56 -41 70 -36 107 19 170 258 399 609 582 148 78 278 132
383 162 101 28 230 20 405 -25z m1273 -1282 c32 -71 93 -212 134 -314 41 -102
92 -214 113 -250 21 -36 72 -135 115 -220 43 -85 106 -207 141 -271 51 -93 64
-125 64 -160 0 -78 20 -211 52 -344 29 -121 38 -144 138 -330 59 -111 173
-300 256 -425 208 -313 275 -470 359 -850 57 -256 72 -347 85 -538 13 -190 13
-915 0 -1117 -10 -158 -30 -365 -36 -365 -2 0 -25 14 -51 30 -102 65 -244 82
-340 40 -65 -28 -156 -121 -205 -210 -80 -144 -115 -328 -120 -620 -3 -162 -1
-191 16 -230 14 -36 19 -80 23 -210 l5 -165 -73 -96 c-177 -231 -373 -428
-594 -594 -349 -263 -764 -433 -1215 -499 -58 -9 -181 -21 -275 -27 -593 -38
-1097 95 -1297 342 -43 54 -168 288 -168 316 0 17 8 21 53 26 89 11 180 65
294 175 123 118 158 180 157 277 -2 170 -219 438 -694 857 -47 42 -190 144
-320 228 -421 274 -747 536 -903 728 -103 126 -165 287 -188 487 -27 226 36
564 166 900 49 126 227 534 308 706 94 201 259 469 288 469 4 0 13 -8 18 -19
6 -10 26 -22 45 -25 55 -10 55 -36 0 -103 -219 -268 -505 -889 -614 -1335 -16
-64 -36 -165 -46 -225 -22 -136 -25 -404 -5 -483 19 -78 71 -186 120 -250 38
-51 150 -154 158 -146 2 2 -1 44 -8 92 -17 131 -6 466 20 624 44 259 131 560
242 838 27 70 180 390 339 712 l290 585 25 140 c45 253 152 530 352 910 80
154 162 316 181 360 42 101 80 240 88 328 4 37 9 67 12 67 10 0 240 -197 300
-257 75 -74 189 -135 302 -160 108 -24 425 -25 535 -1 332 72 674 256 1090
586 105 83 195 149 200 148 6 -1 36 -61 68 -132z m1543 -2025 c238 -73 455
-285 608 -594 136 -274 183 -535 173 -958 -7 -328 -42 -568 -127 -875 -22 -78
-40 -147 -40 -151 0 -12 42 -19 230 -35 408 -36 652 -135 813 -331 66 -80 102
-151 117 -233 12 -70 8 -97 -18 -107 -19 -7 -62 35 -62 61 0 15 -100 162 -161
237 -45 56 -121 102 -249 152 -202 79 -354 107 -590 108 -132 1 -152 -1 -217
-25 -159 -57 -229 -116 -468 -393 -47 -54 -75 -55 -75 -1 0 74 196 331 325
426 28 21 78 51 111 68 l60 30 52 159 c219 673 226 1245 21 1770 -97 247 -291
458 -530 579 -56 28 -89 50 -89 60 0 14 36 74 45 74 1 0 34 -9 71 -21z m-6205
-3010 c93 -36 172 -83 260 -155 178 -146 298 -309 544 -739 171 -299 182 -315
493 -730 402 -536 565 -799 691 -1112 90 -223 124 -389 125 -603 0 -200 -12
-244 -94 -339 -220 -256 -569 -394 -850 -336 -125 25 -397 111 -720 226 -823
293 -1098 369 -1685 465 -471 77 -703 164 -794 299 -30 45 -32 55 -27 101 9
77 34 147 98 272 32 61 84 163 117 226 64 125 96 230 113 366 13 115 2 222
-52 509 -48 257 -58 362 -40 457 28 147 121 312 195 345 75 33 211 50 475 58
219 7 266 12 333 31 43 12 92 32 109 44 45 30 75 96 93 206 41 243 150 360
405 431 76 21 108 18 211 -22z m5936 -212 c18 -7 60 -32 93 -56 49 -36 62 -51
70 -85 49 -189 78 -276 126 -374 46 -94 67 -125 127 -186 130 -131 270 -183
512 -193 162 -6 218 4 353 67 93 44 275 180 324 243 69 86 369 375 416 399 53
27 106 24 126 -6 26 -40 74 -219 106 -393 74 -402 186 -599 441 -774 31 -21
98 -56 148 -78 130 -56 192 -95 282 -179 57 -53 87 -91 110 -138 29 -59 31
-69 27 -146 -6 -115 -51 -214 -122 -270 -58 -46 -156 -97 -236 -123 -73 -24
-271 -113 -373 -168 -45 -24 -138 -74 -207 -111 -264 -143 -370 -222 -864
-649 -421 -365 -434 -376 -496 -407 -25 -13 -84 -51 -131 -84 -95 -69 -128
-83 -274 -122 -134 -35 -343 -44 -465 -20 -241 49 -451 182 -585 371 -85 120
-83 93 -32 379 37 206 46 281 51 416 3 97 12 194 21 235 9 39 20 104 25 145 4
41 15 103 24 136 14 54 16 160 16 836 0 489 4 815 11 883 32 316 128 462 304
463 22 0 54 -5 72 -11z"/>
<path d="M5325 10673 c-16 -9 -48 -19 -69 -22 -50 -8 -74 -40 -83 -110 -5 -46
-3 -56 12 -67 40 -29 69 -18 139 56 70 74 85 105 66 139 -13 25 -25 26 -65 4z"/>
<path d="M5587 10683 c-21 -20 -4 -72 45 -140 57 -79 87 -94 141 -74 43 17 38
66 -14 125 -55 62 -150 111 -172 89z"/>
</g>
</svg>
