<?xml version="1.0" standalone="no"?>
<!DOCTYPE svg PUBLIC "-//W3C//DTD SVG 20010904//EN"
 "http://www.w3.org/TR/2001/REC-SVG-20010904/DTD/svg10.dtd">
<svg version="1.0" xmlns="http://www.w3.org/2000/svg"
 width="814.000000pt" height="1000.000000pt" viewBox="0 0 814.000000 1000.000000"
 preserveAspectRatio="xMidYMid meet">

<g transform="translate(0.000000,1000.000000) scale(0.100000,-0.100000)"
fill="#000000" stroke="none">
<path d="M5955 9993 c-474 -65 -952 -313 -1300 -674 -175 -182 -299 -362 -416
-604 -115 -236 -177 -451 -200 -690 -13 -132 -5 -282 16 -312 20 -26 233 -23
371 6 338 70 691 263 958 521 370 358 619 856 676 1355 11 100 12 286 2 355
-7 43 -8 45 -42 46 -19 1 -48 0 -65 -3z"/>
<path d="M5630 7564 c-227 -31 -466 -102 -835 -246 -504 -197 -616 -220 -835
-172 -99 22 -204 58 -445 154 -453 181 -651 235 -930 255 -101 7 -324 -8 -459
-31 -649 -111 -1224 -492 -1604 -1064 -464 -695 -621 -1602 -461 -2660 110
-728 376 -1502 731 -2125 270 -475 750 -1101 1025 -1337 345 -297 658 -389
1052 -308 131 27 220 57 471 160 118 49 264 104 323 124 320 104 655 123 991
55 132 -27 266 -72 486 -167 299 -127 424 -164 634 -182 377 -33 701 97 1035
414 91 87 268 294 386 451 391 522 637 950 830 1445 56 144 119 330 114 333
-2 1 -53 27 -114 57 -415 209 -775 556 -984 952 -149 282 -225 580 -238 933
-19 555 151 1057 504 1482 136 164 331 340 511 462 l62 42 -32 46 c-354 494
-901 819 -1548 919 -149 23 -532 28 -670 8z"/>
</g>
</svg>
