<?xml version="1.0" standalone="no"?>
<!DOCTYPE svg PUBLIC "-//W3C//DTD SVG 20010904//EN"
 "http://www.w3.org/TR/2001/REC-SVG-20010904/DTD/svg10.dtd">
<svg version="1.0" xmlns="http://www.w3.org/2000/svg"
 width="379.000000pt" height="354.000000pt" viewBox="0 0 379.000000 354.000000"
 preserveAspectRatio="xMidYMid meet">

<g transform="translate(0.000000,354.000000) scale(0.100000,-0.100000)"
fill="#000000" stroke="none">
<path d="M874 3405 c-250 -55 -471 -233 -578 -467 -74 -162 -71 -107 -71
-1128 0 -858 1 -919 18 -980 73 -257 253 -463 489 -561 133 -55 158 -58 610
-61 229 -2 420 1 425 5 11 11 16 2557 6 2922 l-8 280 -415 2 c-314 1 -430 -2
-476 -12z m636 -1596 l0 -1351 -272 7 c-304 7 -352 15 -459 71 -125 66 -224
185 -270 326 l-24 73 0 885 0 885 24 65 c67 188 227 336 405 375 42 9 147 14
329 14 l267 1 0 -1351z"/>
<path d="M928 2745 c-57 -21 -121 -69 -150 -112 -60 -89 -70 -214 -24 -307 52
-105 150 -166 269 -166 63 0 83 5 136 31 68 34 130 101 152 166 23 66 17 162
-15 226 -33 69 -109 139 -173 161 -56 19 -144 20 -195 1z"/>
<path d="M2100 1816 l0 -1605 57 -7 c32 -4 172 -4 313 0 274 7 361 20 472 69
181 80 338 237 424 422 67 144 66 131 71 955 5 885 -2 1088 -41 1205 -43 128
-100 219 -201 321 -104 105 -188 158 -326 206 l-94 33 -337 3 -338 3 0 -1605z
m767 129 c71 -32 137 -102 163 -173 28 -74 25 -196 -7 -257 -35 -66 -90 -122
-151 -152 -48 -24 -70 -28 -137 -28 -97 0 -171 30 -233 95 -67 69 -87 120 -87
225 1 77 5 97 27 140 25 49 94 121 136 144 84 45 200 47 289 6z"/>
</g>
</svg>
