<?xml version="1.0" standalone="no"?>
<!DOCTYPE svg PUBLIC "-//W3C//DTD SVG 20010904//EN"
 "http://www.w3.org/TR/2001/REC-SVG-20010904/DTD/svg10.dtd">
<svg version="1.0" xmlns="http://www.w3.org/2000/svg"
 width="640.000000pt" height="488.000000pt" viewBox="0 0 640.000000 488.000000"
 preserveAspectRatio="xMidYMid meet">

<g transform="translate(0.000000,488.000000) scale(0.100000,-0.100000)"
fill="#000000" stroke="none">
<path d="M1634 4861 c-53 -24 -91 -74 -104 -137 -7 -33 -10 -482 -8 -1405 l3
-1356 30 -48 c20 -32 45 -56 74 -72 l44 -23 859 0 858 0 0 -185 0 -185 -379 0
-379 0 -41 -165 c-22 -90 -41 -169 -41 -175 0 -7 459 -10 1415 -10 778 0 1415
3 1415 7 0 4 -23 83 -52 175 l-51 168 -369 0 -368 0 0 185 0 185 854 0 c578 0
864 3 883 11 38 14 92 67 109 106 12 27 14 261 14 1415 l0 1382 -21 44 c-15
29 -37 54 -67 73 l-46 29 -2295 0 c-2221 0 -2297 -1 -2337 -19z m4526 -1506
l0 -1245 -2200 0 -2200 0 0 1245 0 1245 2200 0 2200 0 0 -1245z"/>
<path d="M82 3953 c-18 -9 -43 -30 -55 -47 l-22 -31 -3 -1745 c-2 -1686 -2
-1746 16 -1780 11 -19 37 -45 58 -57 l39 -23 462 3 c449 2 462 3 489 23 15 11
37 33 48 48 l21 27 0 1749 0 1749 -21 28 c-11 15 -36 38 -54 51 l-33 22 -456
0 c-400 0 -460 -2 -489 -17z m988 -368 c0 -13 -63 -15 -505 -15 -442 0 -505 2
-505 15 0 13 63 15 505 15 442 0 505 -2 505 -15z m0 -150 c0 -13 -62 -15 -500
-15 -438 0 -500 2 -500 15 0 13 62 15 500 15 438 0 500 -2 500 -15z m0 -155
c0 -20 -7 -20 -500 -20 -493 0 -500 0 -500 20 0 20 7 20 500 20 493 0 500 0
500 -20z m0 -145 c0 -13 -62 -15 -500 -15 -438 0 -500 2 -500 15 0 13 62 15
500 15 438 0 500 -2 500 -15z m0 -155 c0 -20 -7 -20 -500 -20 -493 0 -500 0
-500 20 0 20 7 20 500 20 493 0 500 0 500 -20z m-116 -1082 c41 -37 43 -72 8
-108 -38 -38 -66 -38 -103 -1 -16 16 -29 39 -29 51 0 27 52 80 79 80 11 0 31
-10 45 -22z m-746 -20 c15 -15 15 -61 0 -76 -26 -26 -88 0 -88 36 0 40 61 67
88 40z m191 -2 c21 -25 9 -69 -21 -80 -50 -17 -89 42 -52 78 19 20 58 21 73 2z"/>
<path d="M1839 927 c-60 -40 -73 -81 -138 -410 -34 -169 -61 -325 -61 -346 0
-68 36 -129 97 -160 16 -8 619 -11 2248 -11 2514 0 2261 -9 2311 83 23 44 26
57 21 116 -8 103 -123 617 -150 664 -12 23 -37 52 -56 64 l-34 23 -2102 0
-2102 0 -34 -23z"/>
</g>
</svg>
