<?xml version="1.0" standalone="no"?>
<!DOCTYPE svg PUBLIC "-//W3C//DTD SVG 20010904//EN"
 "http://www.w3.org/TR/2001/REC-SVG-20010904/DTD/svg10.dtd">
<svg version="1.0" xmlns="http://www.w3.org/2000/svg"
 width="1280.000000pt" height="992.000000pt" viewBox="0 0 1280.000000 992.000000"
 preserveAspectRatio="xMidYMid meet">

<g transform="translate(0.000000,992.000000) scale(0.100000,-0.100000)"
fill="#000000" stroke="none">
<path d="M4800 5291 l0 -4559 33 -11 c330 -104 1132 -358 1287 -408 606 -192
736 -233 743 -233 4 0 7 1748 7 3885 0 4310 -6 3963 66 4111 78 165 203 218
375 159 223 -75 337 -257 368 -586 7 -75 11 -652 11 -1680 l0 -1566 111 -48
c529 -226 1002 -244 1382 -55 120 60 217 132 319 238 253 262 405 630 464
1127 19 166 22 591 4 815 -51 657 -221 1146 -532 1528 -312 383 -808 699
-1528 972 -492 186 -1580 515 -2315 699 -309 77 -734 171 -775 171 -20 0 -20
-19 -20 -4559z"/>
<path d="M4345 4319 c-27 -9 -381 -135 -785 -279 -1236 -440 -1331 -473 -1785
-634 -651 -231 -886 -327 -1160 -474 -395 -213 -546 -378 -546 -603 0 -94 12
-143 59 -233 80 -152 286 -321 523 -428 176 -79 594 -211 894 -283 905 -217
1761 -248 2693 -98 l162 26 0 535 c0 504 -1 534 -17 530 -10 -3 -255 -91 -544
-196 -289 -105 -570 -203 -625 -216 -428 -108 -956 -95 -1170 30 -170 98 -106
242 156 353 30 13 535 196 1123 406 587 210 1070 384 1072 387 3 3 4 273 3
600 l-3 595 -50 -18z"/>
<path d="M9305 3813 c-615 -29 -1406 -177 -1952 -366 l-93 -32 0 -617 c0 -340
2 -618 4 -618 2 0 508 178 1124 395 617 217 1160 406 1209 419 248 71 589 101
844 76 401 -41 568 -189 388 -344 -78 -66 -193 -114 -804 -331 -335 -120
-1089 -388 -1675 -596 -586 -209 -1071 -382 -1077 -384 -10 -3 -13 -132 -13
-600 0 -327 2 -595 5 -595 14 0 4534 1627 4615 1661 353 150 678 376 779 544
75 123 93 262 51 381 -72 208 -321 408 -685 552 -195 77 -642 222 -825 266
-612 149 -1297 218 -1895 189z"/>
<path d="M11871 1049 c-79 -15 -184 -73 -244 -132 -233 -233 -167 -628 128
-772 383 -188 804 185 665 589 -77 226 -313 361 -549 315z m239 -98 c67 -26
132 -76 181 -141 54 -72 74 -138 73 -240 0 -74 -4 -95 -31 -153 -60 -128 -172
-214 -309 -238 -257 -45 -499 200 -454 459 27 156 142 285 292 327 69 19 176
13 248 -14z"/>
<path d="M11760 585 l0 -265 45 0 45 0 0 111 0 111 106 -4 c123 -4 134 -11
134 -92 0 -28 3 -68 6 -88 l7 -38 53 0 c59 0 61 3 39 46 -9 17 -15 56 -15 96
0 56 -4 71 -25 97 -21 24 -23 31 -11 38 43 24 59 118 30 179 -30 63 -69 74
-254 74 l-160 0 0 -265z m319 159 c28 -35 26 -69 -4 -99 -22 -23 -31 -25 -125
-25 l-100 0 0 75 0 75 104 0 c101 0 105 -1 125 -26z"/>
</g>
</svg>
