<?xml version="1.0" standalone="no"?>
<!DOCTYPE svg PUBLIC "-//W3C//DTD SVG 20010904//EN"
 "http://www.w3.org/TR/2001/REC-SVG-20010904/DTD/svg10.dtd">
<svg version="1.0" xmlns="http://www.w3.org/2000/svg"
 width="225.000000pt" height="225.000000pt" viewBox="0 0 225.000000 225.000000"
 preserveAspectRatio="xMidYMid meet">

<g transform="translate(0.000000,225.000000) scale(0.100000,-0.100000)"
fill="#000000" stroke="none">
<path d="M975 2239 c-160 -20 -334 -87 -479 -183 -98 -65 -248 -217 -312 -316
-246 -381 -242 -865 10 -1244 64 -96 212 -242 313 -309 387 -256 911 -244
1279 31 570 425 621 1235 108 1722 -248 236 -574 342 -919 299z m105 -304 l0
-205 -35 0 c-62 0 -216 60 -273 107 l-24 19 51 76 c75 112 192 206 259 208
l22 0 0 -205z m178 181 c70 -36 135 -98 193 -184 l51 -76 -24 -20 c-54 -45
-216 -106 -280 -106 l-28 0 0 205 c0 234 -3 227 88 181z m-523 -101 c-29 -41
-55 -80 -58 -87 -3 -9 -20 2 -47 29 l-43 41 44 23 c52 28 141 68 151 69 4 0
-17 -34 -47 -75z m843 28 c40 -20 74 -39 77 -43 2 -4 -14 -24 -37 -46 -26 -25
-42 -35 -45 -26 -3 7 -29 46 -59 88 -62 86 -59 87 64 27z m-988 -309 c-17 -49
-42 -136 -55 -193 -13 -57 -25 -105 -27 -106 -14 -14 -231 108 -272 154 -18
20 -17 22 37 103 31 46 95 121 142 167 l87 84 60 -60 60 -60 -32 -89z m1279
91 c40 -42 93 -108 118 -148 l46 -71 -39 -33 c-86 -74 -251 -157 -258 -130 -2
6 -11 50 -21 96 -9 46 -32 128 -51 184 l-35 100 57 58 57 58 27 -19 c14 -10
59 -53 99 -95z m-946 -170 c32 -9 80 -20 105 -24 l47 -6 3 -138 c2 -110 0
-138 -11 -143 -35 -13 -411 34 -447 56 -12 7 -11 21 4 92 10 46 31 125 47 175
l30 93 82 -44 c45 -25 108 -52 140 -61z m682 -80 c13 -49 26 -109 30 -132 l7
-42 -40 -11 c-67 -18 -232 -39 -332 -42 l-95 -3 0 140 0 140 48 7 c79 11 177
45 252 87 l70 39 18 -46 c10 -26 29 -87 42 -137z m-1255 -185 c30 -15 75 -35
100 -44 l45 -17 0 -204 0 -204 -45 -17 c-77 -29 -154 -71 -215 -117 l-60 -45
-13 31 c-28 67 -53 196 -58 307 -7 126 7 234 46 358 l22 70 62 -45 c33 -25 86
-58 116 -73z m1771 -27 c33 -127 33 -349 0 -476 -12 -49 -28 -102 -35 -117
l-12 -29 -44 35 c-56 45 -148 97 -220 124 l-55 21 0 203 0 204 78 32 c74 30
219 118 233 142 9 14 28 -32 55 -139z m-1403 -87 c68 -12 305 -36 353 -36 5 0
9 -51 9 -114 l0 -114 -77 -6 c-146 -12 -268 -27 -333 -40 -36 -8 -68 -12 -72
-9 -10 5 -10 327 -1 337 4 3 13 4 20 2 7 -3 52 -12 101 -20z m940 -146 c1 -90
-1 -167 -5 -171 -5 -4 -37 -1 -73 7 -67 14 -196 29 -332 40 l-78 6 0 113 0
113 78 7 c158 12 282 27 333 40 30 7 59 12 64 11 6 -2 11 -67 13 -166z m-583
-365 l0 -140 -47 -6 c-81 -12 -160 -39 -245 -84 l-81 -43 -30 92 c-17 50 -38
128 -48 174 -15 71 -16 85 -4 92 34 21 319 60 415 56 l40 -1 0 -140z m389 119
c119 -17 176 -31 176 -45 0 -29 -35 -176 -62 -255 l-30 -92 -81 43 c-85 45
-165 72 -245 84 l-47 6 -3 130 c-1 71 0 135 3 143 6 16 120 10 289 -14z m-929
-175 c13 -57 38 -144 55 -193 l32 -89 -61 -61 -61 -60 -102 105 c-58 58 -120
133 -140 169 -44 75 -45 74 64 146 60 40 178 97 186 89 2 -1 14 -49 27 -106z
m1360 39 c28 -17 69 -46 92 -65 l42 -35 -16 -31 c-30 -61 -114 -165 -189 -237
l-76 -72 -60 59 -59 60 35 100 c19 55 42 138 51 184 10 46 19 90 21 96 4 16
86 -15 159 -59z m-815 -433 c0 -199 -1 -205 -20 -205 -31 0 -110 43 -162 89
-63 56 -152 189 -138 206 16 20 150 84 205 100 28 7 65 14 83 14 l32 1 0 -205z
m198 191 c62 -17 167 -65 200 -92 l24 -20 -51 -76 c-60 -90 -126 -151 -196
-184 -90 -42 -85 -52 -85 181 l0 205 28 0 c15 0 51 -7 80 -14z m-598 -185 c0
-5 25 -43 55 -85 30 -42 52 -76 50 -76 -13 0 -114 45 -152 67 l-44 26 37 38
c38 38 54 48 54 30z m944 -30 l38 -39 -43 -25 c-38 -22 -141 -67 -154 -67 -2
0 20 34 50 76 30 42 55 80 55 85 0 18 16 8 54 -30z"/>
</g>
</svg>
