<?xml version="1.0" standalone="no"?>
<!DOCTYPE svg PUBLIC "-//W3C//DTD SVG 20010904//EN"
 "http://www.w3.org/TR/2001/REC-SVG-20010904/DTD/svg10.dtd">
<svg version="1.0" xmlns="http://www.w3.org/2000/svg"
 width="1200.000000pt" height="1203.000000pt" viewBox="0 0 1200.000000 1203.000000"
 preserveAspectRatio="xMidYMid meet">

<g transform="translate(0.000000,1203.000000) scale(0.100000,-0.100000)"
fill="#000000" stroke="none">
<path d="M5685 12024 c-529 -32 -720 -58 -1090 -150 -416 -104 -744 -222
-1165 -419 -350 -164 -455 -224 -431 -248 7 -7 91 -10 245 -8 382 4 600 -26
952 -128 502 -147 848 -284 1405 -557 207 -101 386 -184 398 -184 29 0 166 59
445 192 668 318 1120 485 1602 592 329 73 515 91 827 82 125 -4 227 -5 227 -2
0 10 -226 140 -370 212 -433 217 -1074 435 -1568 534 -151 30 -321 52 -542 70
-124 11 -820 21 -935 14z"/>
<path d="M10040 10353 c-141 -27 -302 -82 -492 -168 -310 -140 -680 -393
-1103 -754 -282 -241 -757 -681 -751 -696 2 -7 101 -134 218 -281 246 -309
385 -491 555 -724 909 -1253 1804 -2816 2138 -3735 208 -572 295 -1133 227
-1465 -12 -58 -22 -112 -22 -120 2 -43 165 188 327 460 210 354 349 627 448
880 159 404 319 963 369 1290 37 241 41 329 41 965 0 802 -14 951 -130 1420
-259 1049 -799 2049 -1465 2715 -191 191 -261 233 -360 213z"/>
<path d="M1860 10319 c-109 -51 -403 -359 -625 -654 -490 -651 -882 -1499
-1060 -2290 -53 -236 -143 -855 -166 -1140 -14 -172 -8 -404 16 -605 148
-1269 433 -2092 1033 -2990 145 -217 177 -258 188 -248 4 5 -6 50 -22 100 -28
91 -29 97 -28 308 1 194 4 232 32 391 119 670 416 1396 980 2399 613 1089
1262 2040 2082 3048 71 88 81 105 69 116 -73 69 -596 537 -709 634 -635 546
-1085 822 -1525 937 -131 34 -184 33 -265 -6z"/>
<path d="M5984 7145 c-228 -114 -1141 -935 -1773 -1595 -1626 -1699 -2475
-3127 -2266 -3815 60 -198 247 -383 685 -677 759 -509 1564 -832 2420 -972
893 -145 2001 -60 2846 219 732 243 1702 799 2071 1189 131 138 173 246 173
446 0 260 -83 541 -275 935 -263 538 -783 1287 -1305 1880 -766 870 -2193
2250 -2472 2391 -26 13 -49 24 -51 24 -2 0 -25 -11 -53 -25z"/>
</g>
</svg>
